<svg id="Laag_1" data-name="Laag 1" xmlns="http://www.w3.org/2000/svg" viewBox="0 0 1832.92 1353.27"><defs><style>.cls-1{fill:#8b6faf;}.cls-2{fill:#3a3a3a;}.cls-3{fill:#fde6d9;}.cls-4{fill:#111110;}.cls-15,.cls-5{fill:#191919;}.cls-6{fill:#333;}.cls-14,.cls-7{fill:#fff;}.cls-7,.cls-8{fill-rule:evenodd;}.cls-18,.cls-8{fill:#f9ded2;}.cls-9{fill:#603e1f;}.cls-10{fill:#422612;}.cls-11{fill:#222323;}.cls-12{fill:#472775;}.cls-13{fill:#282828;}.cls-15{font-size:230px;font-family:LinLibertine, Linux Libertine;}.cls-16{letter-spacing:-0.02em;}.cls-17{letter-spacing:-0.01em;}.cls-19{fill:#ededed;stroke:#dadada;stroke-width:5px;opacity:0.5;}.cls-19,.cls-20,.cls-21{stroke-miterlimit:10;}.cls-20,.cls-21{fill:none;}.cls-20{stroke:#c6c6c6;stroke-width:2px;}.cls-21{stroke:#353535;stroke-width:4px;}.cls-22{fill:#373737;}</style></defs><title>hugo-versie-1</title><circle class="cls-1" cx="604.81" cy="723.88" r="315"/><rect class="cls-2" x="552.24" y="913.67" width="111.34" height="51.12"/><path class="cls-3" d="M523.11,954.53s-5.21,8.53,1.74,12.29,13.88.87,14.46-1.45,2.94-.83,4.27-1.33,3.54-4.33,2.38-6.35-4.78-4.66-4.78-4.66Z"/><path class="cls-4" d="M589.52,710.31l37.31-.8s18.94,4.37,9.56,51.8-22.13,74.77-22.13,74.77H594.85l-18-100S586.08,707.27,589.52,710.31Z"/><path class="cls-5" d="M573.89,723.88,531.6,740.58s-10.35,64.28-12.51,89.21c-2.22,25.53-1.31,84.87.5,127.17l27.85-2s-3.53-140.48,7-150.17L551.07,950.7s35.74,15.1,55.28-8.48c5.81-7,2.61-110.39,2.61-110.39Z"/><path class="cls-6" d="M589.52,710.31s-19,1.93,19.44,121.52c0,0-20-13.13-44.27-91.24-.75-2.43,8.17-6.06,8.17-6.06l-3.94-4.24S586.5,706.37,589.52,710.31Z"/><path class="cls-3" d="M762.31,497.34s11.61-25.9,18.94-8.1-2,42.25-9,54.74c-2.34,4.16-12.6,9.26-15.17,2.28C751.07,529.84,762.31,497.34,762.31,497.34Z"/><path class="cls-3" d="M454,497.34s-11.61-25.9-18.94-8.1,2,42.25,9,54.74c2.34,4.16,12.6,9.26,15.17,2.28C465.29,529.84,454,497.34,454,497.34Z"/><path class="cls-3" d="M596.68,680.3s-.08,31.88-4.41,35.65a30.37,30.37,0,0,0,16.31,4.63v-36Z"/><path class="cls-3" d="M620.49,680.3s.08,31.88,4.41,35.65a30.37,30.37,0,0,1-16.31,4.63v-36Z"/><path class="cls-3" d="M444.58,458.13s3,94.68,24.6,162.92c19.68,62.07,139.4,81.75,139.4,81.75V313.17S462.62,307.6,444.58,458.13Z"/><path class="cls-3" d="M772.59,458.13s-3,94.68-24.6,162.92c-19.68,62.07-139.4,81.75-139.4,81.75V313.17S754.55,307.6,772.59,458.13Z"/><path class="cls-7" d="M655,602.32c-34.12,38.54-54.77,39.54-88,.71C605.59,619.7,614.71,619.27,655,602.32Z"/><path class="cls-8" d="M634.55,554.36c-10.44,25.86-43.94,25.41-54.37,0C595.46,568.48,618.45,569.14,634.55,554.36Z"/><path class="cls-9" d="M453.36,544.68S423,408.47,472,382c31.83-17.19,32,10,32,10s-19.62,56.81-27.37,75.75S453.36,544.68,453.36,544.68Z"/><path class="cls-9" d="M765.37,549.89s29.13-175.63-23.25-174.28c-36.16.93-27.37,21.66-27.37,21.66s19.62,56.81,27.37,75.75S765.37,549.89,765.37,549.89Z"/><path class="cls-10" d="M489.52,314.73s-30.95-8.42-30,29.26C460.8,391.29,523,417.3,523,417.3s-9.37-16.23-8.64-27.31c0,0,34.39,52.37,92.6,54.57,0,0-12.33-5.14-14.12-12.8,0,0,19.74,11.32,32.13,16.53a34.77,34.77,0,0,1-7.34-19.66s16.53,19.76,28.62,22.11c0,0,54.28-13.3,58.17-53.46,0,0,3.74,14.4,3.18,21.19-.25,3.08,57.84-56.31,34.53-83.3,0,0,3-12.71-5.81-26.33-14.4-22.24-91-31.82-125.59-31.74C577.64,277.18,490.55,274,489.52,314.73Z"/><path class="cls-9" d="M455.78,564.36s8,82.55,48.28,108,104.53,41.41,104.53,41.41V659.2s-25.72,5.74-42.94-1.64-20.43-10.66-20.43-10.66l-9.09-22.14S468.92,604,455.78,564.36Z"/><path class="cls-9" d="M762.21,564.36s-8.13,82.55-48.92,108-104.7,41.41-104.7,41.41l-1.22-54.53s26.07,5.74,43.52-1.64,20.7-10.66,20.7-10.66l9.22-22.14S748.89,604,762.21,564.36Z"/><path class="cls-11" d="M642.51,214H573.84C506,214,450.58,262.29,450.58,321.35v29.24h315.2V321.35C765.78,262.29,710.31,214,642.51,214Z"/><rect class="cls-12" x="450.58" y="327.7" width="315.2" height="43.34"/><rect class="cls-11" x="400.97" y="371.1" width="414.42" height="37.37"/><circle class="cls-11" cx="400.97" cy="389.78" r="18.72"/><circle class="cls-11" cx="815.39" cy="389.78" r="18.72"/><path class="cls-9" d="M567.63,586.64s18.13-23.79,40.75-7.55c10.23,7.34,2.7,21-3.06,28.72-2.42,3.24-12.9,10.26-15.62,11.33a104,104,0,0,1-47.56,7.25c-21.74-1.94-31.55-19.63-33.07-26.34-1-4.58,1.72-18.55,6.88-19.15,0,0-7.05,10.72,2.9,17.67,5.64,3.94,18.44,4.88,28.75,1.48S567.63,586.64,567.63,586.64Z"/><path class="cls-9" d="M648.72,586.64s-18.13-23.79-40.75-7.55c-10.23,7.34-2.7,21,3.06,28.72,2.42,3.24,12.9,10.26,15.62,11.33a104,104,0,0,0,47.56,7.25c21.74-1.94,31.55-19.63,33.07-26.34,1-4.58-1.72-18.55-6.88-19.15,0,0,7.05,10.72-2.9,17.67-5.64,3.94-18.44,4.88-28.75,1.48S648.72,586.64,648.72,586.64Z"/><rect class="cls-2" x="552.24" y="964.8" width="52" height="160.84"/><rect class="cls-2" x="611.58" y="964.8" width="52" height="160.84"/><rect class="cls-13" x="547.73" y="1125.64" width="58" height="13.66"/><rect class="cls-13" x="609.23" y="1125.64" width="58.25" height="13.66"/><path class="cls-14" d="M648.15,485s8.75-5.88,15.45,0,4.92,10.66,4.92,10.66-.55,9.57-11.34,8.75-13.53-6.7-13.53-6.7S641.92,487.37,648.15,485Z"/><text class="cls-15" transform="translate(977.43 770.45)">Hu<tspan class="cls-16" x="289.97" y="0">g</tspan><tspan class="cls-17" x="401.49" y="0">o</tspan><tspan x="515.14" y="0">.</tspan></text><path class="cls-14" d="M553.23,483.82s8.75-5.88,15.45,0,4.92,10.66,4.92,10.66-.55,9.57-11.34,8.75-13.53-6.7-13.53-6.7S547,486.23,553.23,483.82Z"/><polygon class="cls-12" points="589.9 713.74 589.9 729.38 608.25 721.56 589.9 713.74"/><polyline class="cls-12" points="608.93 721.56 627.28 713.74 627.28 729.38"/><ellipse class="cls-12" cx="608.25" cy="721.56" rx="2.82" ry="2.14"/><path class="cls-6" d="M555.08,488.24s5.33-3.58,9.42,0,3,6.5,3,6.5-.33,5.83-6.92,5.33-8.25-4.08-8.25-4.08S551.28,489.71,555.08,488.24Z"/><path class="cls-6" d="M651.24,488.24s5.33-3.58,9.42,0,3,6.5,3,6.5-.33,5.83-6.92,5.33-8.25-4.08-8.25-4.08S647.44,489.71,651.24,488.24Z"/><circle class="cls-14" cx="561.58" cy="492.24" r="2.5"/><circle class="cls-14" cx="657.58" cy="492.24" r="2.5"/><path class="cls-18" d="M637.92,477.43s-6.39-4.11.42-7.49,20.08-3.39,20.08-3.39,8,.44,14,4,8,5.2,5.14,6.55-18.15-2.26-18.15-2.26-8.69-1.23-12.79.29A52.78,52.78,0,0,1,637.92,477.43Z"/><path class="cls-18" d="M576.82,477.41s6.38-4.12-.42-7.49-20.08-3.37-20.08-3.37-8,.45-14,4.05-8,5.21-5.14,6.55,18.15-2.28,18.15-2.28,8.69-1.24,12.79.28A52.78,52.78,0,0,0,576.82,477.41Z"/><circle class="cls-19" cx="681.02" cy="483.28" r="56.25"/><path class="cls-20" d="M747.8,462.25a11.22,11.22,0,0,0-7.95,1.25,31.51,31.51,0,0,1,3.7,20.88,11.27,11.27,0,0,0,4.25-22.13Z"/><circle class="cls-21" cx="682.66" cy="484.93" r="61.78"/><path class="cls-14" d="M634.69,480.43s-.68-29.21,24.57-33.32Z"/><rect class="cls-22" x="756.73" y="478.06" width="3.57" height="303.63"/><circle class="cls-22" cx="758.51" cy="477.94" r="1.78"/><circle class="cls-22" cx="758.51" cy="781.7" r="1.78"/><circle class="cls-22" cx="757.38" cy="477.41" r="2.91"/><path class="cls-3" d="M764.75,783.48s9.72-2.3,7.51-9.88-9.15-10.48-11.2-9.26-2.66-1.5-3.95-2.1-5.57.53-6.19,2.77.05,6.67.05,6.67Z"/><path class="cls-5" d="M642.47,723.08l20.58,8.13s19.53,39.24,41.73,65.37c0,0,32.09-17.66,45.13-25.73l17.63,15.41-38.63,29.62-29.33,18.67S672.45,813.66,662,804l3.33,145.93s-39.7,18.31-56.31-8.22c-5.88-9.39,0-109.85,0-109.85Z"/><path class="cls-6" d="M626.83,709.51s20.59,2.72-17.86,122.32c0,0,18.47-13.93,42.69-92,.75-2.43-8.17-6.06-8.17-6.06l3.94-4.24S629.86,705.57,626.83,709.51Z"/></svg>