<svg id="Laag_1" data-name="Laag 1" xmlns="http://www.w3.org/2000/svg" viewBox="0 0 1156.62 925.33"><defs><style>.cls-1{fill:#8b6faf;}.cls-2{fill:#3a3a3a;}.cls-3{fill:#fde6d9;}.cls-4{fill:#111110;}.cls-16,.cls-5{fill:#191919;}.cls-6{fill:#333;}.cls-7{fill:#ba3b50;}.cls-8{fill:#472775;}.cls-15,.cls-9{fill:#fff;}.cls-10,.cls-9{fill-rule:evenodd;}.cls-10,.cls-17{fill:#f9ded2;}.cls-11{fill:#603e1f;}.cls-12{fill:#422612;}.cls-13{fill:#222323;}.cls-14{fill:#282828;}.cls-16{font-size:170px;font-family:Century, Century;}.cls-18{fill:#ededed;stroke:#dadada;stroke-width:5px;opacity:0.5;}.cls-18,.cls-19,.cls-20{stroke-miterlimit:10;}.cls-19,.cls-20{fill:none;}.cls-19{stroke:#c6c6c6;stroke-width:2px;}.cls-20{stroke:#353535;stroke-width:4px;}.cls-21{fill:#373737;}</style></defs><title>hugo-versie-1</title><circle class="cls-1" cx="315" cy="509.91" r="315"/><rect class="cls-2" x="262.43" y="699.7" width="111.34" height="51.12"/><path class="cls-3" d="M233.31,740.56s-5.21,8.53,1.74,12.29,13.88.87,14.46-1.45,2.94-.83,4.27-1.33,3.54-4.33,2.38-6.35-4.78-4.66-4.78-4.66Z"/><path class="cls-4" d="M299.72,496.34l37.31-.8s18.94,4.37,9.56,51.8-22.13,74.77-22.13,74.77H305l-18-100S296.27,493.31,299.72,496.34Z"/><path class="cls-5" d="M284.08,509.91l-42.29,16.71s-10.35,64.28-12.51,89.21c-2.22,25.53-1.31,84.87.5,127.17l27.85-2s-3.53-140.48,7-150.17l-3.33,145.93s35.74,15.1,55.28-8.48c5.81-7,2.61-110.39,2.61-110.39Z"/><path class="cls-6" d="M299.72,496.34s-19,1.93,19.44,121.52c0,0-20-13.13-44.27-91.24-.75-2.43,8.17-6.06,8.17-6.06l-3.94-4.24S296.69,492.4,299.72,496.34Z"/><path class="cls-7" d="M320.32,129.66"/><path class="cls-8" d="M192.17,146.13"/><path class="cls-3" d="M472.51,283.37s11.61-25.9,18.94-8.1-2,42.25-9,54.74c-2.34,4.16-12.6,9.26-15.17,2.28C461.26,315.87,472.51,283.37,472.51,283.37Z"/><path class="cls-3" d="M164.23,283.37s-11.61-25.9-18.94-8.1,2,42.25,9,54.74c2.34,4.16,12.6,9.26,15.17,2.28C175.48,315.87,164.23,283.37,164.23,283.37Z"/><path class="cls-3" d="M306.87,466.33s-.08,31.88-4.41,35.65a30.37,30.37,0,0,0,16.31,4.63v-36Z"/><path class="cls-3" d="M330.69,466.33s.08,31.88,4.41,35.65a30.37,30.37,0,0,1-16.31,4.63v-36Z"/><path class="cls-3" d="M154.78,244.16s3,94.68,24.6,162.92c19.68,62.07,139.4,81.75,139.4,81.75V99.21S172.82,93.63,154.78,244.16Z"/><path class="cls-3" d="M482.79,244.16s-3,94.68-24.6,162.92c-19.68,62.07-139.4,81.75-139.4,81.75V99.21S464.75,93.63,482.79,244.16Z"/><path class="cls-9" d="M365.24,388.35c-34.12,38.54-54.77,39.54-88,.71C315.78,405.73,324.9,405.3,365.24,388.35Z"/><path class="cls-10" d="M344.75,340.39c-10.44,25.86-43.94,25.41-54.37,0C305.66,354.51,328.64,355.17,344.75,340.39Z"/><path class="cls-11" d="M163.55,330.71s-30.36-136.22,18.6-162.65c31.83-17.19,32,10,32,10s-19.62,56.81-27.37,75.75S163.55,330.71,163.55,330.71Z"/><path class="cls-11" d="M475.56,335.92s29.13-175.63-23.25-174.28c-36.16.93-27.37,21.66-27.37,21.66s19.62,56.81,27.37,75.75S475.56,335.92,475.56,335.92Z"/><path class="cls-12" d="M199.71,100.76s-30.95-8.42-30,29.26c1.24,47.31,63.44,73.31,63.44,73.31s-9.37-16.23-8.64-27.31c0,0,34.39,52.37,92.6,54.57,0,0-12.33-5.14-14.12-12.8,0,0,19.74,11.32,32.13,16.53a34.77,34.77,0,0,1-7.34-19.66s16.53,19.76,28.62,22.11c0,0,54.28-13.3,58.17-53.46,0,0,3.74,14.4,3.18,21.19-.25,3.08,57.84-56.31,34.53-83.3,0,0,3-12.71-5.81-26.33-14.4-22.24-91-31.82-125.59-31.74C287.84,63.21,200.74,60,199.71,100.76Z"/><path class="cls-11" d="M166,350.39s8,82.55,48.28,108,104.53,41.41,104.53,41.41V445.23s-25.72,5.74-42.94-1.64-20.43-10.66-20.43-10.66l-9.09-22.14S179.12,390,166,350.39Z"/><path class="cls-11" d="M472.4,350.39s-8.13,82.55-48.92,108-104.7,41.41-104.7,41.41l-1.22-54.53s26.07,5.74,43.52-1.64,20.7-10.66,20.7-10.66L391,410.79S459.09,390,472.4,350.39Z"/><path class="cls-13" d="M352.71,0H284C216.24,0,160.77,48.32,160.77,107.38v29.24H476V107.38C476,48.32,420.5,0,352.71,0Z"/><rect class="cls-8" x="160.77" y="113.73" width="315.2" height="43.34"/><rect class="cls-13" x="111.16" y="157.13" width="414.42" height="37.37"/><circle class="cls-13" cx="111.16" cy="175.82" r="18.72"/><circle class="cls-13" cx="525.58" cy="175.82" r="18.72"/><path class="cls-11" d="M277.83,372.67s18.13-23.79,40.75-7.55c10.23,7.34,2.7,21-3.06,28.72-2.42,3.24-12.9,10.26-15.62,11.33a104,104,0,0,1-47.56,7.25c-21.74-1.94-31.55-19.63-33.07-26.34-1-4.58,1.72-18.55,6.88-19.15,0,0-7.05,10.72,2.9,17.67,5.64,3.94,18.44,4.88,28.75,1.48S277.83,372.67,277.83,372.67Z"/><path class="cls-11" d="M358.91,372.67s-18.13-23.79-40.75-7.55c-10.23,7.34-2.7,21,3.06,28.72,2.42,3.24,12.9,10.26,15.62,11.33a104,104,0,0,0,47.56,7.25c21.74-1.94,31.55-19.63,33.07-26.34,1-4.58-1.72-18.55-6.88-19.15,0,0,7.05,10.72-2.9,17.67-5.64,3.94-18.44,4.88-28.75,1.48S358.91,372.67,358.91,372.67Z"/><rect class="cls-2" x="262.43" y="750.83" width="52" height="160.84"/><rect class="cls-2" x="321.77" y="750.83" width="52" height="160.84"/><rect class="cls-14" x="257.93" y="911.67" width="58" height="13.66"/><rect class="cls-14" x="319.43" y="911.67" width="58.25" height="13.66"/><path class="cls-15" d="M358.35,271s8.75-5.88,15.45,0,4.92,10.66,4.92,10.66-.55,9.57-11.34,8.75-13.53-6.7-13.53-6.7S352.11,273.4,358.35,271Z"/><text class="cls-16" transform="translate(687.63 556.48)">Hugo.</text><path class="cls-15" d="M263.42,269.85s8.75-5.88,15.45,0,4.92,10.66,4.92,10.66-.55,9.57-11.34,8.75-13.53-6.7-13.53-6.7S257.18,272.26,263.42,269.85Z"/><polygon class="cls-8" points="300.09 499.77 300.09 515.41 318.44 507.59 300.09 499.77"/><polyline class="cls-8" points="319.12 507.59 337.47 499.77 337.47 515.41"/><ellipse class="cls-8" cx="318.44" cy="507.59" rx="2.82" ry="2.14"/><path class="cls-6" d="M265.27,274.27s5.33-3.58,9.42,0,3,6.5,3,6.5-.33,5.83-6.92,5.33-8.25-4.08-8.25-4.08S261.47,275.75,265.27,274.27Z"/><path class="cls-6" d="M361.44,274.27s5.33-3.58,9.42,0,3,6.5,3,6.5-.33,5.83-6.92,5.33-8.25-4.08-8.25-4.08S357.64,275.75,361.44,274.27Z"/><circle class="cls-15" cx="271.77" cy="278.27" r="2.5"/><circle class="cls-15" cx="367.77" cy="278.27" r="2.5"/><path class="cls-17" d="M348.11,263.46s-6.39-4.11.42-7.49,20.08-3.39,20.08-3.39,8,.44,14,4,8,5.2,5.14,6.55-18.15-2.26-18.15-2.26-8.69-1.23-12.79.29A52.78,52.78,0,0,1,348.11,263.46Z"/><path class="cls-17" d="M287,263.44s6.38-4.12-.42-7.49-20.08-3.37-20.08-3.37-8,.45-14,4.05-8,5.21-5.14,6.55,18.15-2.28,18.15-2.28,8.69-1.24,12.79.28A52.78,52.78,0,0,0,287,263.44Z"/><circle class="cls-18" cx="391.21" cy="269.32" r="56.25"/><path class="cls-19" d="M458,248.28a11.22,11.22,0,0,0-7.95,1.25,31.51,31.51,0,0,1,3.7,20.88A11.27,11.27,0,0,0,458,248.28Z"/><circle class="cls-20" cx="392.85" cy="270.96" r="61.78"/><path class="cls-15" d="M344.88,266.46s-.68-29.21,24.57-33.32Z"/><rect class="cls-21" x="466.92" y="264.09" width="3.57" height="303.63"/><circle class="cls-21" cx="468.7" cy="263.98" r="1.78"/><circle class="cls-21" cx="468.7" cy="567.73" r="1.78"/><circle class="cls-21" cx="467.57" cy="263.45" r="2.91"/><path class="cls-3" d="M474.94,569.51s9.72-2.3,7.51-9.88-9.15-10.48-11.2-9.26-2.66-1.5-3.95-2.1-5.57.53-6.19,2.77.05,6.67.05,6.67Z"/><path class="cls-5" d="M352.66,509.11l20.58,8.13s19.53,39.24,41.73,65.37c0,0,32.09-17.66,45.13-25.73l17.63,15.41-38.63,29.62-29.33,18.67S382.64,599.69,372.14,590l3.33,145.93s-39.7,18.31-56.31-8.22c-5.88-9.39,0-109.85,0-109.85Z"/><path class="cls-6" d="M337,495.54s20.59,2.72-17.86,122.32c0,0,18.47-13.93,42.69-92,.75-2.43-8.17-6.06-8.17-6.06l3.94-4.24S340.05,491.61,337,495.54Z"/></svg>